<svg xmlns="http://www.w3.org/2000/svg" viewBox="0 0 1200 1200" fill="none">
  <rect width="1200" height="1200" fill="#EEF1F5" />
  <rect x="84" y="84" width="1032" height="1032" rx="68" fill="url(#a)" stroke="#C7CDD6" stroke-width="4" />
  <rect x="156" y="170" width="888" height="108" rx="30" fill="#FCFCFD" stroke="#D8DDE4" stroke-width="3" />
  <rect x="182" y="202" width="190" height="18" rx="9" fill="#B5BDC8" />
  <rect x="182" y="236" width="280" height="18" rx="9" fill="#DEE3E9" />
  <rect x="156" y="326" width="356" height="640" rx="34" fill="#FCFCFD" stroke="#D8DDE4" stroke-width="3" />
  <rect x="552" y="326" width="492" height="306" rx="34" fill="#F9FAFB" stroke="#D8DDE4" stroke-width="3" />
  <rect x="552" y="660" width="492" height="306" rx="34" fill="#FCFCFD" stroke="#D8DDE4" stroke-width="3" />
  <path d="M202 402H466" stroke="#A2AAB6" stroke-width="18" stroke-linecap="round" />
  <path d="M202 456H420" stroke="#D5DAE1" stroke-width="18" stroke-linecap="round" />
  <path d="M202 510H450" stroke="#D5DAE1" stroke-width="18" stroke-linecap="round" />
  <path d="M598 392H998" stroke="#98A2AF" stroke-width="22" stroke-linecap="round" />
  <path d="M598 446H926" stroke="#D5DAE1" stroke-width="18" stroke-linecap="round" />
  <path d="M598 500H952" stroke="#D5DAE1" stroke-width="18" stroke-linecap="round" />
  <rect x="596" y="726" width="164" height="164" rx="26" fill="#D8DEE6" />
  <rect x="782" y="726" width="110" height="164" rx="26" fill="#BAC2CD" />
  <rect x="914" y="726" width="84" height="164" rx="26" fill="#8D97A5" />
  <defs>
    <linearGradient id="a" x1="162" y1="108" x2="1022" y2="1080" gradientUnits="userSpaceOnUse">
      <stop stop-color="#FCFCFD" />
      <stop offset="1" stop-color="#E2E6EC" />
    </linearGradient>
  </defs>
</svg>
